Coordinates
version=1
nRows=10
nColumns=33
inDegrees=yes

Units are S.I. units (second, meters, Newtons, ...)
Angles are in degrees.

endheader
time	ground_thorax_rot_x	ground_thorax_rot_y	ground_thorax_rot_z	ground_thorax_tx	ground_thorax_ty	ground_thorax_tz	clav_prot_r	clav_elev_r	scapula_abduction_r	scapula_elevation_r	scapula_upward_rot_r	scapula_winging_r	shoulder_elv_r	plane_of_elev_r	axial_rot_r	elbow_flexion_r	pro_sup_r	wrist_flex_r	wrist_dev_r	clav_prot_l	clav_elev_l	scapula_abduction_l	scapula_elevation_l	scapula_upward_rot_l	scapula_winging_l	shoulder_elv_l	plane_of_elev_l	axial_rot_l	elbow_flexion_l	pro_sup_l	wrist_flex_l	wrist_dev_l
      5.03000000	    -37.44016237	    -14.85750642	     22.94237215	   -265.84430017	    829.09859479	      7.35209766	      7.80978867	    -45.00000000	     36.48871252	    -45.00000000	    -45.00000000	   3135.18422712	  -3707.54909597	    147.30422272	   -108.59930791	   1819.20966394	     92.90797219	     12.45667654	      2.57050783	     13.74266260	     37.13163405	    -34.83594604	    -45.00000000	    -45.00000000	     87.41094539	     74.15826531	     22.65314698	    -43.33939732	   1098.14882718	     95.79700025	     -1.53284319	    -13.01377998
      5.04000000	    -37.33971262	    -15.02029127	     23.10411375	   -265.96079189	    828.92892019	      7.24461711	      7.98102706	    -45.00000000	     36.45588483	    -45.00000000	    -45.00000000	   3135.27151173	  -3707.45262015	    147.41381910	   -108.50784801	   1819.13886799	     92.90612019	     12.63862797	      2.56085523	     13.47096433	     37.18402374	    -34.61905777	    -45.00000000	    -45.00000000	     87.22140207	     74.30742700	     22.54561361	    -43.21772744	   1098.10380922	     95.77435649	     -1.60235519	    -12.91059936
      5.05000000	    -37.36920149	    -14.95169609	     22.98238886	   -265.98918847	    828.77007733	      7.15595774	      7.95395820	    -45.00000000	     36.54115017	    -45.00000000	    -45.00000000	   3135.10441494	  -3707.64537051	    147.29219397	   -108.72629837	   1819.20014792	     92.90376220	     12.34378389	      2.58886202	     13.60811066	     37.03176549	    -34.74194464	    -45.00000000	    -45.00000000	     87.35409133	     74.10770130	     22.65464922	    -43.32038534	   1098.14556078	     95.73187142	     -1.53042814	    -13.03015660
      5.06000000	    -37.29031957	    -15.16112084	     23.16700082	   -265.93302716	    828.62328373	      7.08205705	      7.96024176	    -45.00000000	     36.40050215	    -45.00000000	    -45.00000000	   3135.35094569	  -3707.39047801	    147.46519684	   -108.69861543	   1819.23465857	     92.93947379	     12.65234354	      2.54637860	     13.55659192	     37.26231342	    -34.55953810	    -45.00000000	    -45.00000000	     87.18972438	     74.30611646	     22.49166340	    -43.29226774	   1098.19416552	     95.69280088	     -1.58241435	    -12.88594303
      5.07000000	    -37.32839042	    -15.00231037	     23.01301910	   -265.79724940	    828.48115404	      7.01947530	      7.97480083	    -45.00000000	     36.54749465	    -45.00000000	    -45.00000000	   3135.05945604	  -3707.73538808	    147.20082922	   -108.98997047	   1819.21590639	     92.98243466	     12.22823000	      2.59238640	     13.56349442	     36.92583474	    -34.75116067	    -45.00000000	    -45.00000000	     87.34804253	     74.01435380	     22.70056133	    -43.31662856	   1098.18713869	     95.67804623	     -1.51817029	    -12.98287912
      5.08000000	    -37.22380434	    -15.33492654	     23.34175827	   -265.59337433	    828.34668528	      6.97012017	      7.95715012	    -45.00000000	     36.37847113	    -45.00000000	    -45.00000000	   3135.47511755	  -3707.31989127	    147.56322480	   -108.95235766	   1819.33323726	     93.05769092	     12.67166157	      2.52558175	     13.61495852	     37.38587770	    -34.47005205	    -45.00000000	    -45.00000000	     87.09122817	     74.30925194	     22.44284925	    -43.23785124	   1098.23095523	     95.65900068	     -1.55736988	    -12.86330193
      5.09000000	    -37.29000194	    -15.25812568	     23.17833238	   -265.32256604	    828.21251776	      6.93097671	      7.94145246	    -45.00000000	     36.48496288	    -45.00000000	    -45.00000000	   3135.26614327	  -3707.57166989	    147.26386762	   -109.23858388	   1819.33562933	     93.17179115	     12.35041009	      2.54940323	     13.58935519	     37.12103526	    -34.62461916	    -45.00000000	    -45.00000000	     87.26424619	     74.10677985	     22.62306206	    -43.18335853	   1098.18954718	     95.66645342	     -1.50872848	    -12.90593132
      5.10000000	    -37.29668935	    -15.30142205	     23.26145757	   -265.00523227	    828.08347262	      6.90312240	      8.00536086	    -45.00000000	     36.41432141	    -45.00000000	    -45.00000000	   3135.28791309	  -3707.56008292	    147.25406463	   -109.40961171	   1819.31940194	     93.29332864	     12.35192841	      2.54533986	     13.57597817	     37.05827803	    -34.66298937	    -45.00000000	    -45.00000000	     87.18670277	     74.15011644	     22.54534846	    -43.13042146	   1098.25237590	     95.66048115	     -1.50783174	    -12.86267657
      5.11000000	    -37.28284994	    -15.52563572	     23.27984888	   -264.64500502	    827.95640280	      6.88407603	      7.92468685	    -45.00000000	     36.56159888	    -45.00000000	    -45.00000000	   3135.30967056	  -3707.52867579	    147.14190919	   -109.61005278	   1819.49468905	     93.41125766	     12.25657759	      2.50265079	     13.64633423	     37.12159059	    -34.54848114	    -45.00000000	    -45.00000000	     87.32622824	     74.06032434	     22.67468978	    -43.00742348	   1098.07392429	     95.69388024	     -1.43458234	    -12.83262425
      5.12000000	    -37.38952354	    -15.37811661	     23.26813558	   -264.24802271	    827.83184453	      6.87178841	      8.06275548	    -45.00000000	     36.27812924	    -45.00000000	    -45.00000000	   3135.40539769	  -3707.65431935	    147.09833628	   -109.77345716	   1819.35476536	     93.59289168	     12.31772409	      2.52917731	     13.51107386	     37.04851074	    -34.77132958	    -45.00000000	    -45.00000000	     87.13029091	     74.23040798	     22.41773534	    -42.99826453	   1098.36873524	     95.67551268	     -1.51911084	    -12.87180480
